<?xml version="1.0" standalone="no"?>
<!DOCTYPE svg PUBLIC "-//W3C//DTD SVG 20010904//EN"
 "http://www.w3.org/TR/2001/REC-SVG-20010904/DTD/svg10.dtd">
<svg version="1.0" xmlns="http://www.w3.org/2000/svg"
 width="430.000000pt" height="430.000000pt" viewBox="0 0 430.000000 430.000000"
 preserveAspectRatio="xMidYMid meet">
<metadata>
Created by potrace 1.16, written by Peter Selinger 2001-2019
</metadata>
<g transform="translate(0.000000,430.000000) scale(0.100000,-0.100000)"
fill="#000000" stroke="none">
<path d="M2175 4074 c-16 -2 -82 -11 -145 -20 -497 -68 -956 -312 -1241 -660
-424 -518 -556 -1297 -333 -1973 152 -464 442 -813 879 -1059 468 -264 1148
-341 1737 -196 239 58 456 153 656 284 l92 61 0 803 0 804 -452 7 c-249 3
-550 5 -668 3 l-215 -3 -3 -267 -2 -266 26 -31 26 -31 274 0 274 0 0 -330 0
-331 -47 -20 c-205 -89 -399 -124 -643 -116 -355 12 -618 115 -834 325 -172
167 -284 387 -346 678 -28 130 -38 411 -20 562 52 447 264 789 597 965 168 88
320 126 530 134 373 14 664 -70 991 -288 104 -69 131 -78 175 -58 15 7 82 102
180 254 86 134 158 248 159 253 4 14 -135 128 -244 199 -227 149 -504 250
-818 298 -100 16 -514 29 -585 19z"/>
</g>
</svg>
